<?xml version="1.0" standalone="no"?><!DOCTYPE svg PUBLIC "-//W3C//DTD SVG 1.1//EN" "http://www.w3.org/Graphics/SVG/1.1/DTD/svg11.dtd"><svg t="1524136854844" class="icon" style="" viewBox="0 0 1024 1024" version="1.1" xmlns="http://www.w3.org/2000/svg" p-id="10896" xmlns:xlink="http://www.w3.org/1999/xlink" width="200" height="200"><defs><style type="text/css"></style></defs><path d="M133.059482 506.440377l50.838875 0 0-13.498432-52.384068 0-0.011256-28.556383 46.953382 0 0-13.498432L71.00517 450.887131l0 13.498432 46.99943 0-0.011256 28.556383L65.709561 492.941945l0 13.498432 50.738591 0c-4.832052 20.436448-21.139459 37.662785-51.246151 54.604642l6.619768 11.762905c18.580171-10.455119 41.698704-26.00835 52.92642-49.727565 2.908236 6.170536 6.736425 12.081153 11.508102 17.691941 9.570983 11.255345 23.12365 21.734 41.431621 32.035624l6.618744-11.762905C154.198941 544.104185 137.891534 526.877849 133.059482 506.440377zM223.836975 457.70235c-7.54586-7.321756-19.407002-7.119141-25.786293-7.010671-0.651846 0.011256-1.25048 0.021489-1.780553 0.021489l0 13.498432c0.599657 0 1.27504-0.011256 2.01182-0.023536 4.417613-0.076748 12.634762-0.214894 16.155958 3.200902 0.518816 0.50449 2.099824 2.038426 2.157129 6.368034 0.019443 1.475608 0.034792 3.046383 0.047072 4.683672l-20.965497 12.505825 6.91448 11.593036 14.092973-8.40646c-0.00307 4.782933-0.016373 9.843182-0.030699 15.037485l-20.976754 12.512988 6.91448 11.593036 14.018272-8.361435c-0.008186 3.869121-0.014326 7.718799-0.014326 11.486612 0 3.094478-1.822508 8.017604-3.980661 10.749832-6.263657 7.93267-16.938788 14.056134-17.039072 14.114462l6.64842 11.746532c0.529049-0.299829 13.053294-7.451716 20.983917-17.496489 4.054339-5.132904 6.885827-12.993942 6.885827-19.11536 0-7.549953 0.13303-52.54268-0.001023-62.818721C230.005464 466.988854 227.901547 461.646172 223.836975 457.70235zM250.438842 483.620649 263.937275 483.620649 263.937275 472.76644 292.634874 472.76644 292.634874 483.620649 306.133306 483.620649 306.133306 472.76644 319.137481 472.76644 319.137481 459.268008 306.133306 459.268008 306.133306 450.481901 292.634874 450.481901 292.634874 459.268008 263.937275 459.268008 263.937275 450.481901 250.438842 450.481901 250.438842 459.268008 237.72324 459.268008 237.72324 472.76644 250.438842 472.76644ZM319.137481 492.583788l-81.414241 0 0 13.498432 0 47.39238c0 11.023054 9.019421 20.042475 20.042475 20.042475l41.329291 0c11.024078 0 20.042475-9.019421 20.042475-20.042475l0-52.534494L319.137481 492.583788zM305.639049 506.08222l0 20.1182L285.179065 526.20042l0-20.1182L305.639049 506.08222zM271.680633 506.08222l0 20.1182-20.458961 0 0-20.1182L271.680633 506.08222zM251.221672 553.475624l0-13.775748 20.458961 0 0 20.320814-13.915941 0C254.218936 560.019667 251.221672 557.022403 251.221672 553.475624zM299.095006 560.019667 285.179065 560.019667l0-20.320814 20.459984 0 0 13.775748C305.639049 557.022403 302.641785 560.019667 299.095006 560.019667zM560.483224 493.245867c-12.558014 0-17.047258 13.302981-17.047258 13.302981l-26.686802 66.969251 13.800307 0 11.125385-28.357861 36.637432 0 10.958586 28.357861 14.947434 0-26.681686-66.969251C577.535599 506.548848 573.083194 493.245867 560.483224 493.245867zM554.697451 513.24434c0 0 1.540076-4.256954 5.785773-4.256954 4.389984 0 5.798053 4.256954 5.798053 4.256954l6.812149 18.092054 0.309038 0.822738-26.470885 0L554.697451 513.24434zM339.735611 505.695411 372.20614 505.695411 372.20614 573.471027 372.21535 573.471027 385.730155 573.471027 385.730155 505.695411 418.2058 505.695411 418.2058 493.048369 339.735611 493.048369ZM626.021893 546.462906l0-53.242622-13.429871 0 0 13.344936 0 46.131667c0 12.068873 8.370645 20.744463 21.084201 20.744463l16.33299 0L650.009214 560.160883c0 0-3.022847 0.023536-9.939373 0.023536C631.057583 560.184419 626.021893 558.52871 626.021893 546.462906zM672.236448 546.462906l0-53.242622-13.430894 0 0 13.344936 0 46.131667c0 12.068873 8.371668 20.744463 21.091364 20.744463l16.319687 0L696.216605 560.160883c0 0-3.010567 0.023536-9.943466 0.023536C677.272137 560.184419 672.236448 558.52871 672.236448 546.462906zM500.466316 493.580488c-4.482081-1.817392-8.646937 1.523703-9.475815 2.175549-5.880941 4.637624-12.238742 11.543917-23.781636 11.543917l-0.453325 0-0.146333 0-0.450255 0c-11.553127 0-17.901719-6.906294-23.785729-11.543917-0.824785-0.651846-4.995781-3.991917-9.477862-2.175549-4.189416 1.688455-4.854565 5.711072-4.854565 8.902764 0 6.137791 0.014326 41.550325 0.014326 70.919213l13.412474 0L441.467597 513.058099c4.436032 2.442632 13.691837 8.518001 24.841781 8.518001l0.743944 0c10.603499 0 20.407796-6.075369 24.836665-8.518001l0 60.34539 13.424754 0c0.010233-29.368888 0.017396-64.782446 0.017396-70.919213C505.329067 499.29156 504.653685 495.268944 500.466316 493.580488zM953.934225 493.580488c-4.482081-1.817392-8.646937 1.523703-9.475815 2.175549-5.880941 4.637624-12.238742 11.543917-23.781636 11.543917l-0.453325 0-0.146333 0-0.450255 0c-11.553127 0-17.901719-6.906294-23.785729-11.543917-0.824785-0.651846-4.995781-3.991917-9.477862-2.175549-4.189416 1.688455-4.854565 5.711072-4.854565 8.902764 0 6.137791 0.014326 41.550325 0.014326 70.919213l13.412474 0L894.935506 513.058099c4.436032 2.442632 13.691837 8.518001 24.841781 8.518001l0.743944 0c10.603499 0 20.407796-6.075369 24.836665-8.518001l0 60.34539 13.424754 0c0.010233-29.368888 0.017396-64.782446 0.017396-70.919213C958.797999 499.29156 958.122617 495.268944 953.934225 493.580488zM717.154473 560.055482c-3.704368 0-6.721075 3.000334-6.721075 6.701632 0 3.707438 3.016707 6.713912 6.721075 6.713912 3.704368 0 6.709819-3.007497 6.709819-6.713912C723.864292 563.054793 720.857818 560.055482 717.154473 560.055482zM835.141678 493.292939c-9.66922 0-17.983583 2.8847-24.721031 8.579399-8.052396 6.835685-12.149714 17.445324-12.149714 31.503505 0 12.824073 3.427052 22.813588 10.165524 29.679973 6.750751 6.90527 15.732309 10.416234 26.706245 10.416234 6.794753 0 13.18223-1.591241 18.961864-4.718465 5.773494-3.131317 10.239202-7.596002 13.290701-13.289678 2.995217-5.64865 4.505617-13.43601 4.505617-23.130813 0-12.081153-3.454682-21.703301-10.280134-28.602432C854.788134 496.80595 845.87616 493.292939 835.141678 493.292939zM851.950506 554.069141c-4.516874 4.386914-10.175757 6.614651-16.808828 6.614651-6.837732 0-12.364609-2.146896-16.915251-6.565533-4.621251-4.526083-6.979972-11.491729-6.979972-20.74344 0-9.238408 2.359744-16.189727 6.979972-20.681018 4.482081-4.347005 10.175757-6.541997 16.915251-6.541997 6.622838 0 12.265348 2.206248 16.768919 6.570649 4.657067 4.496407 7.016811 11.30958 7.016811 20.243043C858.926384 542.448476 856.584036 549.551244 851.950506 554.069141zM768.994142 505.508145c6.622838 0 12.259208 2.206248 16.764825 6.570649 0.317225 0.308015 0.621147 0.62831 0.916882 0.957815l7.532557-11.167341c-6.649444-6.117324-15.127536-9.219989-25.214265-9.219989-9.66922 0-17.981537 2.8847-24.718985 8.579399-8.061606 6.835685-12.150738 17.445324-12.150738 31.503505 0 12.824073 3.420913 22.813588 10.159384 29.679973 6.750751 6.90527 15.732309 10.416234 26.710338 10.416234 6.791683 0 13.176091-1.591241 18.955724-4.718465 1.416256-0.76748 2.75167-1.617847 4.010337-2.544963l-6.000668-12.304234c-0.054235 0.054235-0.104377 0.112564-0.159636 0.165776-4.516874 4.386914-10.171664 6.614651-16.804734 6.614651-6.835685 0-12.368702-2.146896-16.915251-6.565533-4.621251-4.526083-6.979972-11.491729-6.979972-20.74344 0-9.238408 2.359744-16.189727 6.979972-20.681018C756.560972 507.702114 762.250554 505.508145 768.994142 505.508145z" p-id="10897"></path></svg>